<?xml version="1.0" encoding="UTF-8" standalone="no"?>
<!-- Created with Inkscape (http://www.inkscape.org/) -->

<svg
   xmlns:dc="http://purl.org/dc/elements/1.1/"
   xmlns:cc="http://creativecommons.org/ns#"
   xmlns:rdf="http://www.w3.org/1999/02/22-rdf-syntax-ns#"
   xmlns:svg="http://www.w3.org/2000/svg"
   xmlns="http://www.w3.org/2000/svg"
   xmlns:sodipodi="http://sodipodi.sourceforge.net/DTD/sodipodi-0.dtd"
   xmlns:inkscape="http://www.inkscape.org/namespaces/inkscape"
   width="230"
   height="50"
   viewBox="0 0 229.99998 50"
   id="svg2"
   version="1.1"
   inkscape:version="0.91 r13725"
   sodipodi:docname="ayologopath.svg"
   inkscape:export-filename="/Users/Laurence/Documents/ProgramStuff/MidsummerDreamsWeb/files/nonapp/ayologopath.png"
   inkscape:export-xdpi="90"
   inkscape:export-ydpi="90">
  <defs
     id="defs4" />
  <sodipodi:namedview
     id="base"
     pagecolor="#ffffff"
     bordercolor="#666666"
     borderopacity="1.0"
     inkscape:pageopacity="0.0"
     inkscape:pageshadow="2"
     inkscape:zoom="5.2434783"
     inkscape:cx="21.331804"
     inkscape:cy="25"
     inkscape:document-units="px"
     inkscape:current-layer="layer1"
     showgrid="false"
     units="px"
     inkscape:window-width="1280"
     inkscape:window-height="751"
     inkscape:window-x="0"
     inkscape:window-y="0"
     inkscape:window-maximized="1" />
  <metadata
     id="metadata7">
    <rdf:RDF>
      <cc:Work
         rdf:about="">
        <dc:format>image/svg+xml</dc:format>
        <dc:type
           rdf:resource="http://purl.org/dc/dcmitype/StillImage" />
        <dc:title></dc:title>
      </cc:Work>
    </rdf:RDF>
  </metadata>
  <g
     inkscape:label="Layer 1"
     inkscape:groupmode="layer"
     id="layer1"
     transform="translate(0,-1002.3622)">
    <g
       style="font-style:normal;font-variant:normal;font-weight:bold;font-stretch:normal;font-size:40px;line-height:125%;font-family:Candara;-inkscape-font-specification:'Candara Bold';letter-spacing:0px;word-spacing:0px;fill:#ffffff;fill-opacity:1;stroke:none;stroke-width:1px;stroke-linecap:butt;stroke-linejoin:miter;stroke-opacity:1"
       id="text3336">
      <path
         d="m 46.435532,1051.0438 -11.71875,0 q 0,-2.417 -3.33252,-13.6963 l -16.918945,0 q -3.442383,11.0962 -3.442383,13.6963 l -11.022949258789,0 q 0,-1.4282 8.532714858789,-23.4375 8.5693364,-22.0093 8.5693364,-24.2431 l 13.842773,0 q 0,2.0874 7.727051,23.9135 7.763672,21.7896 7.763672,23.7671 z m -16.918946,-20.6909 q -6.262207,-18.8965 -6.262207,-20.4346 l -0.585937,0 q 0,1.4283 -6.481934,20.4346 l 13.330078,0 z"
         style="font-size:75px;fill:#ffffff;fill-opacity:1"
         id="path3425"
         inkscape:connector-curvature="0" />
      <path
         d="m 86.132797,1003.3632 q 0,1.5014 -4.174804,8.0932 -6.408692,10.0708 -7.800293,12.5244 -4.174805,7.4341 -4.174805,11.023 0,8.0566 0.439453,16.04 l -10.400391,0 q 0.402832,-8.02 0.402832,-16.1499 0,-3.7353 -3.845214,-11.3159 -1.794434,-3.5156 -7.177735,-12.561 -3.845215,-6.482 -3.845215,-7.6538 l 11.499024,0 q 0,1.3183 4.577637,11.1328 4.614257,9.7778 4.614257,12.6342 l 0.585938,0 q 0,-2.6367 4.467773,-12.0117 4.504395,-9.375 4.504395,-11.7553 l 10.327148,0 z"
         style="font-size:75px;fill:#ffffff;fill-opacity:1"
         id="path3427"
         inkscape:connector-curvature="0" />
      <path
         d="m 136.04735,1026.3246 q 0,11.2427 -6.88477,18.6401 -6.88476,7.3975 -17.02881,7.3975 -9.66796,0 -16.18652,-6.7749 -6.518554,-6.8115 -6.518554,-17.2852 0,-11.2427 6.884765,-18.6401 6.884769,-7.3975 17.028809,-7.3975 9.66797,0 16.18652,6.7749 6.51856,6.7749 6.51856,17.2852 z m -10.10742,1.062 q 0,-7.6538 -3.91846,-12.4146 -3.91846,-4.7607 -9.66797,-4.7607 -5.34668,0 -9.08203,4.7974 -3.735352,4.7973 -3.735352,12.1215 0,7.6172 3.918452,12.4146 3.95508,4.7607 9.66797,4.7607 5.34668,0 9.08203,-4.7973 3.73536,-4.834 3.73536,-12.1216 z"
         style="font-size:75px;fill:#ffffff;fill-opacity:1"
         id="path3429"
         inkscape:connector-curvature="0" />
    </g>
    <g
       style="font-style:normal;font-variant:normal;font-weight:bold;font-stretch:normal;font-size:21.25px;line-height:125%;font-family:Candara;-inkscape-font-specification:'Candara Bold';letter-spacing:0px;word-spacing:0px;fill:#ffffff;fill-opacity:1;stroke:none;stroke-width:1px;stroke-linecap:butt;stroke-linejoin:miter;stroke-opacity:1"
       id="text3336-6">
      <path
         d="m 152.8662,1017.1284 -2.18934,0 q 0,-0.6952 -1.30737,-4.3683 l -5.98694,0 q -1.28662,3.6212 -1.28662,4.3683 l -2.09595,0 q 0,-0.3839 2.67701,-6.6302 2.677,-6.2567 2.677,-6.8793 l 2.40723,0 q 0,0.6122 2.55249,6.7755 2.55249,6.1633 2.55249,6.734 z m -3.974,-5.7275 q -2.43836,-6.0907 -2.43836,-6.4746 l -0.11413,0 q 0,0.3216 -2.52137,6.4746 l 5.07386,0 z"
         style="font-style:normal;font-variant:normal;font-weight:normal;font-stretch:normal;font-size:21.25px;font-family:Candara;-inkscape-font-specification:Candara;fill:#ffffff;fill-opacity:1"
         id="path3462"
         inkscape:connector-curvature="0" />
      <path
         d="m 163.11766,1017.118 -1.60828,0.062 q -0.14526,-0.5811 -0.14526,-0.9546 l -0.10376,0 q -1.38,1.1621 -3.35144,1.1621 -1.79504,0 -2.61475,-0.8612 -0.80932,-0.8716 -0.80932,-3.4967 0,-0.3735 0.0207,-1.1102 0.0208,-0.7367 0.0208,-1.0065 0,-1.5253 -0.17639,-3.5901 l 1.92993,-0.073 q -0.12451,2.0026 -0.12451,3.4241 0,3.2684 0.41504,4.2645 0.42541,0.9857 1.8988,0.9857 1.66016,0 2.73926,-0.8301 0,-5.769 -0.10376,-7.7716 l 1.86768,-0.073 q -0.083,1.9507 -0.083,5.3955 0,2.2101 0.22827,4.472 z"
         style="font-style:normal;font-variant:normal;font-weight:normal;font-stretch:normal;font-size:21.25px;font-family:Candara;-inkscape-font-specification:Candara;fill:#ffffff;fill-opacity:1"
         id="path3464"
         inkscape:connector-curvature="0" />
      <path
         d="m 173.28612,1015.5409 -0.10376,1.3904 q -0.84046,0.4773 -2.25159,0.4773 -2.68738,0 -4.10889,-1.4838 -1.4215,-1.4838 -1.4215,-3.5797 0,-2.2205 1.49414,-3.8184 1.49414,-1.5979 3.95324,-1.5979 1.23474,0 2.01294,0.2491 l -0.28015,1.629 q -1.08948,-0.4047 -2.21008,-0.4047 -1.47339,0 -2.34497,1.0272 -0.87158,1.0273 -0.87158,2.5733 0,1.6809 1.03759,2.8015 1.0376,1.1206 2.9364,1.1206 0.7782,0 2.15821,-0.3839 z"
         style="font-style:normal;font-variant:normal;font-weight:normal;font-stretch:normal;font-size:21.25px;font-family:Candara;-inkscape-font-specification:Candara;fill:#ffffff;fill-opacity:1"
         id="path3466"
         inkscape:connector-curvature="0" />
      <path
         d="m 184.2224,1017.1284 -2.43836,0 q 0,-0.3631 -2.01294,-2.7704 -2.06482,-2.4798 -2.59399,-2.4798 l -0.0726,0 q 0,2.2204 0.11413,5.2502 l -1.82617,0 q 0.13489,-3.7976 0.13489,-7.7405 0,-4.0155 -0.3009,-6.8585 l 1.99218,-0.1037 q -0.11413,2.2412 -0.11413,8.7054 l 0.0726,0 q 0.34241,0 2.14783,-1.7432 1.81579,-1.7535 1.81579,-2.1167 l 2.29309,0 q 0,0.3321 -1.62903,1.7225 -1.52526,1.2969 -2.79113,2.1374 l 0,0.083 q 1.28662,0.9754 3.30993,3.3411 1.89881,2.2308 1.89881,2.5732 z"
         style="font-style:normal;font-variant:normal;font-weight:normal;font-stretch:normal;font-size:21.25px;font-family:Candara;-inkscape-font-specification:Candara;fill:#ffffff;fill-opacity:1"
         id="path3468"
         inkscape:connector-curvature="0" />
      <path
         d="m 187.70872,1017.1284 -1.99218,0 q 0.18677,-3.4241 0.18677,-7.7405 0,-4.1919 -0.30091,-6.8585 l 2.10632,-0.1037 q -0.19714,2.8222 -0.19714,6.9622 0,4.2646 0.19714,7.7405 z"
         style="font-style:normal;font-variant:normal;font-weight:normal;font-stretch:normal;font-size:21.25px;font-family:Candara;-inkscape-font-specification:Candara;fill:#ffffff;fill-opacity:1"
         id="path3470"
         inkscape:connector-curvature="0" />
      <path
         d="m 198.35448,1017.1284 -1.62903,0.062 q -0.12451,-0.5084 -0.12451,-0.965 l -0.10376,0 q -1.27625,1.1621 -3.47596,1.1621 -1.19323,0 -2.05444,-0.6952 -0.8612,-0.7055 -0.8612,-2.0025 0,-1.5979 1.34887,-2.5629 1.34888,-0.9753 5.0116,-1.0272 0.0311,-0.249 0.0311,-0.5707 0,-1.2762 -0.68482,-1.7017 -0.67444,-0.4254 -2.05444,-0.4254 -1.62903,0 -3.20618,0.4047 l 0.17639,-1.4319 q 1.5564,-0.4462 3.57972,-0.4462 1.84692,0 2.85339,0.7679 1.00647,0.7574 1.00647,2.5939 0,0.4877 -0.0519,1.7743 -0.0415,1.2763 -0.0415,1.7017 0,1.8884 0.28015,3.3618 z m -1.83655,-2.0129 q -0.0519,-1.5772 -0.0519,-2.8327 -1.95068,0 -2.96753,0.2906 -1.70166,0.5188 -1.70166,1.9818 0,1.4111 1.99219,1.4111 1.71203,0 2.72888,-0.8508 z"
         style="font-style:normal;font-variant:normal;font-weight:normal;font-stretch:normal;font-size:21.25px;font-family:Candara;-inkscape-font-specification:Candara;fill:#ffffff;fill-opacity:1"
         id="path3472"
         inkscape:connector-curvature="0" />
      <path
         d="m 209.76805,1017.1284 -1.88843,0 q 0.22827,-2.7289 0.22827,-5.9558 0,-1.5979 -0.65368,-2.1789 -0.64331,-0.5915 -1.84693,-0.5915 -1.47338,0 -2.7185,1.0687 0,3.5383 0.0415,7.6575 l -1.88843,0 q 0.1764,-3.5278 0.1764,-5.105 0,-2.4279 -0.45655,-4.7107 l 1.82618,-0.2594 0.19714,1.2659 0.083,0 q 1.53564,-1.3904 3.28918,-1.3904 1.72241,0 2.66663,0.7679 0.94421,0.7574 0.94421,2.7081 0,0.1971 -0.0207,0.7782 -0.0207,0.581 -0.0207,0.7782 0,1.7328 0.0415,5.1672 z"
         style="font-style:normal;font-variant:normal;font-weight:normal;font-stretch:normal;font-size:21.25px;font-family:Candara;-inkscape-font-specification:Candara;fill:#ffffff;fill-opacity:1"
         id="path3474"
         inkscape:connector-curvature="0" />
      <path
         d="m 221.42027,1017.118 -1.54602,0.052 q -0.083,-0.4461 -0.083,-0.9442 l -0.11413,0 q -1.08948,1.1829 -3.23731,1.1829 -1.97143,0 -3.14392,-1.4319 -1.16211,-1.4319 -1.16211,-3.4552 0,-2.2931 1.297,-3.9533 1.297,-1.6601 3.65234,-1.6601 1.68091,0 2.40723,0.6848 l 0.083,0 q 0,-2.5732 -0.14526,-5.0531 l 1.97143,-0.073 q -0.19714,2.6355 -0.19714,6.9 0,4.3371 0.21789,7.7508 z m -1.67053,-2.044 q 0,-3.227 -0.17639,-6.2152 -0.84046,-0.6952 -2.09595,-0.6952 -1.75354,0 -2.62512,1.1725 -0.87158,1.1621 -0.87158,2.926 0,1.5771 0.8197,2.6562 0.83008,1.0791 2.29309,1.0791 1.83655,0 2.65625,-0.9234 z"
         style="font-style:normal;font-variant:normal;font-weight:normal;font-stretch:normal;font-size:21.25px;font-family:Candara;-inkscape-font-specification:Candara;fill:#ffffff;fill-opacity:1"
         id="path3476"
         inkscape:connector-curvature="0" />
    </g>
    <text
       xml:space="preserve"
       style="font-style:normal;font-weight:normal;font-size:40px;line-height:125%;font-family:sans-serif;letter-spacing:0px;word-spacing:0px;fill:#000000;fill-opacity:1;stroke:none;stroke-width:1px;stroke-linecap:butt;stroke-linejoin:miter;stroke-opacity:1"
       x="103.9548"
       y="1008.2944"
       id="text3368"
       sodipodi:linespacing="125%"><tspan
         sodipodi:role="line"
         id="tspan3370"
         x="103.9548"
         y="1008.2944" /></text>
    <g
       style="font-style:normal;font-variant:normal;font-weight:bold;font-stretch:normal;font-size:21.25px;line-height:125%;font-family:Candara;-inkscape-font-specification:'Candara Bold';letter-spacing:0px;word-spacing:0px;fill:#ffffff;fill-opacity:1;stroke:none;stroke-width:1px;stroke-linecap:butt;stroke-linejoin:miter;stroke-opacity:1"
       id="text3336-6-5">
      <path
         d="m 151.3513,1020.3746 q 0,0.3839 -1.27624,2.2412 -1.80542,2.6252 -2.35535,3.5694 -1.27624,2.1686 -1.27624,3.2995 0,2.1375 0.14526,4.3995 l -1.99219,0 q 0.13489,-2.1479 0.13489,-4.4202 0,-1.2451 -1.19324,-3.4552 -0.67444,-1.2348 -2.23083,-3.5693 -1.19324,-1.8055 -1.19324,-2.0649 l 2.12708,0 q 0,0.2698 1.78466,3.31 1.79505,3.0298 1.79505,4.0051 l 0.10376,0 q 0,-0.9857 1.70166,-3.9429 1.71203,-2.9571 1.71203,-3.3722 l 2.01294,0 z"
         style="font-style:normal;font-variant:normal;font-weight:normal;font-stretch:normal;font-size:21.25px;font-family:Candara;-inkscape-font-specification:Candara;fill:#ffffff;fill-opacity:1"
         id="path3451"
         inkscape:connector-curvature="0" />
      <path
         d="m 161.81029,1028.6547 q 0,2.6562 -1.52527,4.1504 -1.52527,1.4837 -3.59009,1.4837 -1.92993,0 -3.32031,-1.3177 -1.38001,-1.3178 -1.38001,-3.7146 0,-2.677 1.52527,-4.1815 1.53565,-1.5046 3.60047,-1.5046 1.92993,0 3.30993,1.3385 1.38001,1.3282 1.38001,3.7458 z m -1.79505,0.3631 q 0,-1.6186 -0.8197,-2.8741 -0.80932,-1.2659 -2.31384,-1.2659 -1.49414,0 -2.30347,1.1932 -0.79895,1.1933 -0.79895,2.7704 0,1.6291 0.80933,2.8846 0.8197,1.2554 2.33459,1.2554 1.49414,0 2.29309,-1.1932 0.79895,-1.2036 0.79895,-2.7704 z"
         style="font-style:normal;font-variant:normal;font-weight:normal;font-stretch:normal;font-size:21.25px;font-family:Candara;-inkscape-font-specification:Candara;fill:#ffffff;fill-opacity:1"
         id="path3453"
         inkscape:connector-curvature="0" />
      <path
         d="m 172.95409,1033.8738 -1.60828,0.062 q -0.14526,-0.581 -0.14526,-0.9546 l -0.10376,0 q -1.38001,1.1622 -3.35144,1.1622 -1.79505,0 -2.61475,-0.8613 -0.80933,-0.8715 -0.80933,-3.4967 0,-0.3735 0.0208,-1.1102 0.0207,-0.7367 0.0207,-1.0065 0,-1.5252 -0.17639,-3.59 l 1.92993,-0.073 q -0.12451,2.0026 -0.12451,3.4241 0,3.2684 0.41504,4.2645 0.42541,0.9857 1.8988,0.9857 1.66016,0 2.73926,-0.83 0,-5.7691 -0.10376,-7.7716 l 1.86767,-0.073 q -0.083,1.9507 -0.083,5.3955 0,2.2101 0.22828,4.4721 z"
         style="font-style:normal;font-variant:normal;font-weight:normal;font-stretch:normal;font-size:21.25px;font-family:Candara;-inkscape-font-specification:Candara;fill:#ffffff;fill-opacity:1"
         id="path3455"
         inkscape:connector-curvature="0" />
      <path
         d="m 181.26524,1032.4523 -0.12451,1.3488 q -0.8197,0.301 -1.54602,0.301 -1.86767,0 -2.55249,-0.9443 -0.68481,-0.9546 -0.68481,-3.4033 0,-1.5875 0.0208,-4.14 -0.58106,0 -1.71204,0.062 l 0.0623,-1.5046 q 0.98572,0.062 1.76391,0.062 0,-0.6226 0.10376,-2.9572 l 1.62903,-0.166 q -0.17639,2.179 -0.17639,3.1232 1.01685,0 2.98828,-0.1038 l -0.0726,1.5461 q -1.86768,-0.062 -2.99866,-0.062 -0.0207,1.5668 -0.0207,3.5278 0,2.1375 0.44617,2.8327 0.45654,0.6848 1.68091,0.6848 0.40466,0 1.19323,-0.2075 z"
         style="font-style:normal;font-variant:normal;font-weight:normal;font-stretch:normal;font-size:21.25px;font-family:Candara;-inkscape-font-specification:Candara;fill:#ffffff;fill-opacity:1"
         id="path3457"
         inkscape:connector-curvature="0" />
      <path
         d="m 192.00438,1033.8842 -1.88843,0 q 0.22827,-2.7289 0.22827,-5.8728 0,-1.681 -0.63293,-2.262 -0.62256,-0.5914 -1.73279,-0.5914 -1.5564,0 -2.91565,1.0687 0,5.6653 0.083,7.6575 l -1.82617,0 q 0.0934,-2.7393 0.0934,-7.7405 0,-4.3787 -0.3009,-6.8585 l 1.97143,-0.1038 q -0.083,3.1647 -0.083,5.8728 l 0.0623,0 q 1.5564,-1.3696 3.4137,-1.3696 1.66015,0 2.59399,0.7782 0.93384,0.7678 0.93384,2.7081 0,0.1971 -0.0207,0.7782 -0.0207,0.5707 -0.0207,1.0065 0,1.4941 0.0415,4.9286 z"
         style="font-style:normal;font-variant:normal;font-weight:normal;font-stretch:normal;font-size:21.25px;font-family:Candara;-inkscape-font-specification:Candara;fill:#ffffff;fill-opacity:1"
         id="path3459"
         inkscape:connector-curvature="0" />
    </g>
    <g
       style="font-style:normal;font-variant:normal;font-weight:bold;font-stretch:normal;font-size:21.25px;line-height:125%;font-family:Candara;-inkscape-font-specification:'Candara Bold';letter-spacing:0px;word-spacing:0px;fill:#ffffff;fill-opacity:1;stroke:none;stroke-width:1px;stroke-linecap:butt;stroke-linejoin:miter;stroke-opacity:1"
       id="text3336-6-5-6">
      <path
         d="m 152.99156,1044.9952 q 0,3.3515 -1.96106,5.3644 -1.96106,2.0026 -4.5343,2.0026 -2.46948,0 -4.33716,-1.8366 -1.8573,-1.8469 -1.8573,-4.9804 0,-3.393 1.96106,-5.3748 1.96106,-1.9922 4.5343,-1.9922 2.46949,0 4.32679,1.8469 1.86767,1.8366 1.86767,4.9701 z m -1.84692,0.2387 q 0,-2.677 -1.41113,-4.14 -1.40076,-1.4734 -3.23731,-1.4734 -1.70166,0 -3.02978,1.546 -1.32813,1.546 -1.32813,4.1296 0,2.6874 1.41113,4.1608 1.42151,1.463 3.24768,1.463 1.70166,0 3.01941,-1.5668 1.32813,-1.5667 1.32813,-4.1192 z"
         style="font-style:normal;font-variant:normal;font-weight:normal;font-stretch:normal;font-size:21.25px;font-family:Candara;-inkscape-font-specification:Candara;fill:#ffffff;fill-opacity:1"
         id="path3432"
         inkscape:connector-curvature="0" />
      <path
         d="m 161.64513,1042.1003 -0.46692,1.6498 q -0.80933,-0.3216 -1.50452,-0.3216 -1.95068,0 -2.53174,1.8573 0,4.7729 0.0623,6.6717 l -1.83655,0 q 0.16602,-3.2892 0.16602,-5.105 0,-2.4591 -0.48767,-4.7107 l 1.81579,-0.2594 q 0.19714,1.1414 0.19714,1.5253 l 0.083,0 q 1.12061,-1.6498 2.61475,-1.6498 0.78857,0 1.88843,0.3424 z"
         style="font-style:normal;font-variant:normal;font-weight:normal;font-stretch:normal;font-size:21.25px;font-family:Candara;-inkscape-font-specification:Candara;fill:#ffffff;fill-opacity:1"
         id="path3434"
         inkscape:connector-curvature="0" />
      <path
         d="m 170.47508,1050.37 -0.10376,1.3904 q -0.84045,0.4773 -2.25158,0.4773 -2.68738,0 -4.10889,-1.4838 -1.42151,-1.4838 -1.42151,-3.5797 0,-2.2205 1.49414,-3.8184 1.49414,-1.5979 3.95325,-1.5979 1.23474,0 2.01294,0.2491 l -0.28015,1.629 q -1.08948,-0.4047 -2.21009,-0.4047 -1.47339,0 -2.34497,1.0272 -0.87158,1.0273 -0.87158,2.5733 0,1.6809 1.0376,2.8015 1.0376,1.1206 2.9364,1.1206 0.7782,0 2.1582,-0.3839 z"
         style="font-style:normal;font-variant:normal;font-weight:normal;font-stretch:normal;font-size:21.25px;font-family:Candara;-inkscape-font-specification:Candara;fill:#ffffff;fill-opacity:1"
         id="path3436"
         inkscape:connector-curvature="0" />
      <path
         d="m 181.3076,1051.9575 -1.88843,0 q 0.22828,-2.7289 0.22828,-5.8728 0,-1.6809 -0.63294,-2.2619 -0.62256,-0.5915 -1.73279,-0.5915 -1.55639,0 -2.91565,1.0687 0,5.6653 0.083,7.6575 l -1.82617,0 q 0.0934,-2.7392 0.0934,-7.7405 0,-4.3786 -0.3009,-6.8585 l 1.97144,-0.1037 q -0.083,3.1646 -0.083,5.8728 l 0.0623,0 q 1.5564,-1.3697 3.4137,-1.3697 1.66016,0 2.59399,0.7782 0.93384,0.7679 0.93384,2.7082 0,0.1971 -0.0208,0.7782 -0.0207,0.5706 -0.0207,1.0064 0,1.4942 0.0415,4.9286 z"
         style="font-style:normal;font-variant:normal;font-weight:normal;font-stretch:normal;font-size:21.25px;font-family:Candara;-inkscape-font-specification:Candara;fill:#ffffff;fill-opacity:1"
         id="path3438"
         inkscape:connector-curvature="0" />
      <path
         d="m 192.52403,1045.8668 q 0,0.4358 -0.0415,1.2036 l -7.1283,0.1245 q 0.10376,1.5149 1.17249,2.5422 1.06872,1.0168 2.83264,1.0168 1.57715,0 2.95715,-0.3839 l -0.17639,1.463 q -1.01684,0.4047 -2.9364,0.4047 -2.69775,0 -4.11926,-1.4734 -1.41114,-1.4734 -1.41114,-3.5901 0,-2.262 1.28663,-3.891 1.29699,-1.6394 3.47595,-1.6394 2.00256,0 3.04016,1.1829 1.04797,1.1828 1.04797,3.0401 z m -1.73279,0.021 q 0,-2.9157 -2.43835,-2.9157 -2.49023,0 -2.9364,3.0298 l 5.37475,-0.1141 z"
         style="font-style:normal;font-variant:normal;font-weight:normal;font-stretch:normal;font-size:21.25px;font-family:Candara;-inkscape-font-specification:Candara;fill:#ffffff;fill-opacity:1"
         id="path3440"
         inkscape:connector-curvature="0" />
      <path
         d="m 201.52,1049.1456 q 0,3.0298 -3.87023,3.0298 -1.71204,0 -3.19581,-0.3424 l 0.32166,-1.5253 q 1.34888,0.5188 2.92602,0.5188 2.26197,0 2.26197,-1.2866 0,-0.6225 -0.50843,-0.9857 -0.49804,-0.3735 -1.66015,-0.8301 -1.47339,-0.581 -2.13745,-1.1206 -0.97534,-0.7989 -0.97534,-1.9299 0,-1.1829 0.89233,-2.0233 0.89233,-0.8509 2.71851,-0.8509 1.78466,0 2.86377,0.3009 l -0.32166,1.4942 q -1.12061,-0.4462 -2.59399,-0.4462 -1.99219,0 -1.99219,1.1517 0,0.5811 0.44617,0.9443 0.44616,0.3527 1.74316,0.8612 1.40076,0.5499 2.07519,1.0791 1.00647,0.8197 1.00647,1.961 z"
         style="font-style:normal;font-variant:normal;font-weight:normal;font-stretch:normal;font-size:21.25px;font-family:Candara;-inkscape-font-specification:Candara;fill:#ffffff;fill-opacity:1"
         id="path3442"
         inkscape:connector-curvature="0" />
      <path
         d="m 209.54063,1050.5256 -0.12451,1.3489 q -0.8197,0.3009 -1.54602,0.3009 -1.86767,0 -2.55249,-0.9442 -0.68481,-0.9546 -0.68481,-3.4033 0,-1.5875 0.0207,-4.14 -0.58106,0 -1.71204,0.062 l 0.0623,-1.5045 q 0.98572,0.062 1.76391,0.062 0,-0.6226 0.10376,-2.9572 l 1.62903,-0.166 q -0.17639,2.1789 -0.17639,3.1232 1.01685,0 2.98828,-0.1038 l -0.0726,1.546 q -1.86767,-0.062 -2.99866,-0.062 -0.0208,1.5667 -0.0208,3.5278 0,2.1374 0.44617,2.8326 0.45654,0.6849 1.68091,0.6849 0.40466,0 1.19323,-0.2076 z"
         style="font-style:normal;font-variant:normal;font-weight:normal;font-stretch:normal;font-size:21.25px;font-family:Candara;-inkscape-font-specification:Candara;fill:#ffffff;fill-opacity:1"
         id="path3444"
         inkscape:connector-curvature="0" />
      <path
         d="m 217.75841,1042.1003 -0.46692,1.6498 q -0.80933,-0.3216 -1.50452,-0.3216 -1.95068,0 -2.53174,1.8573 0,4.7729 0.0623,6.6717 l -1.83655,0 q 0.16602,-3.2892 0.16602,-5.105 0,-2.4591 -0.48767,-4.7107 l 1.81579,-0.2594 q 0.19715,1.1414 0.19715,1.5253 l 0.083,0 q 1.12061,-1.6498 2.61475,-1.6498 0.78857,0 1.88843,0.3424 z"
         style="font-style:normal;font-variant:normal;font-weight:normal;font-stretch:normal;font-size:21.25px;font-family:Candara;-inkscape-font-specification:Candara;fill:#ffffff;fill-opacity:1"
         id="path3446"
         inkscape:connector-curvature="0" />
      <path
         d="m 226.83739,1051.9575 -1.62903,0.062 q -0.12451,-0.5084 -0.12451,-0.965 l -0.10376,0 q -1.27625,1.1621 -3.47595,1.1621 -1.19324,0 -2.05445,-0.6952 -0.8612,-0.7055 -0.8612,-2.0025 0,-1.5979 1.34887,-2.5629 1.34888,-0.9753 5.0116,-1.0272 0.0311,-0.249 0.0311,-0.5707 0,-1.2762 -0.68482,-1.7017 -0.67444,-0.4254 -2.05444,-0.4254 -1.62903,0 -3.20618,0.4047 l 0.17639,-1.4319 q 1.5564,-0.4462 3.57972,-0.4462 1.84692,0 2.85339,0.7679 1.00647,0.7574 1.00647,2.594 0,0.4876 -0.0519,1.7742 -0.0415,1.2763 -0.0415,1.7017 0,1.8884 0.28015,3.3618 z m -1.83655,-2.0129 q -0.0519,-1.5772 -0.0519,-2.8327 -1.95068,0 -2.96753,0.2906 -1.70166,0.5188 -1.70166,1.9818 0,1.4111 1.99219,1.4111 1.71203,0 2.72888,-0.8508 z"
         style="font-style:normal;font-variant:normal;font-weight:normal;font-stretch:normal;font-size:21.25px;font-family:Candara;-inkscape-font-specification:Candara;fill:#ffffff;fill-opacity:1"
         id="path3448"
         inkscape:connector-curvature="0" />
    </g>
    <text
       xml:space="preserve"
       style="font-style:normal;font-weight:normal;font-size:40px;line-height:125%;font-family:sans-serif;letter-spacing:0px;word-spacing:0px;fill:#000000;fill-opacity:1;stroke:none;stroke-width:1px;stroke-linecap:butt;stroke-linejoin:miter;stroke-opacity:1"
       x="94.915245"
       y="1020.5354"
       id="text3418"
       sodipodi:linespacing="125%"><tspan
         sodipodi:role="line"
         id="tspan3420"
         x="94.915245"
         y="1020.5354" /></text>
  </g>
</svg>
