<?xml version="1.0" encoding="UTF-8" standalone="no"?>
<!-- (c) ammap.com | SVG map of New Zealand - Low -->

<svg
   xmlns:amcharts="http://amcharts.com/ammap"
   xmlns:dc="http://purl.org/dc/elements/1.1/"
   xmlns:cc="http://creativecommons.org/ns#"
   xmlns:rdf="http://www.w3.org/1999/02/22-rdf-syntax-ns#"
   xmlns:svg="http://www.w3.org/2000/svg"
   xmlns="http://www.w3.org/2000/svg"
   xmlns:sodipodi="http://sodipodi.sourceforge.net/DTD/sodipodi-0.dtd"
   xmlns:inkscape="http://www.inkscape.org/namespaces/inkscape"
   version="1.1"
   id="svg2"
   inkscape:version="0.91 r13725"
   sodipodi:docname="newZealandLow.svg"
   width="475"
   height="670">
  <metadata
     id="metadata29">
    <rdf:RDF>
      <cc:Work
         rdf:about="">
        <dc:format>image/svg+xml</dc:format>
        <dc:type
           rdf:resource="http://purl.org/dc/dcmitype/StillImage" />
        <dc:title></dc:title>
      </cc:Work>
    </rdf:RDF>
  </metadata>
  <sodipodi:namedview
     pagecolor="#ffffff"
     bordercolor="#666666"
     borderopacity="1"
     objecttolerance="10"
     gridtolerance="10"
     guidetolerance="10"
     inkscape:pageopacity="0"
     inkscape:pageshadow="2"
     inkscape:window-width="1280"
     inkscape:window-height="751"
     id="namedview27"
     showgrid="false"
     inkscape:zoom="0.5565714"
     inkscape:cx="197.5294"
     inkscape:cy="340.34926"
     inkscape:window-x="0"
     inkscape:window-y="0"
     inkscape:window-maximized="1"
     inkscape:current-layer="g8" />
  <defs
     id="defs4">
    <style
       type="text/css"
       id="style6">
			.land
			{
				fill: #CCCCCC;
				fill-opacity: 1;
				stroke:white;
				stroke-opacity: 1;
				stroke-width:0.5;
			}
		</style>
    <amcharts:ammap
       projection="mercator"
       leftLongitude="165.876210"
       topLatitude="-34.392108"
       rightLongitude="183.847768"
       bottomLatitude="-52.609857" />
    <!-- All areas are listed in the line below. You can use this list in your script. -->
    <!--{id:"NZ-AUK"},{id:"NZ-BOP"},{id:"NZ-CAN"},{id:"NZ-CIT"},{id:"NZ-GIS"},{id:"NZ-HKB"},{id:"NZ-MBH"},{id:"NZ-MWT"},{id:"NZ-NSN"},{id:"NZ-NTL"},{id:"NZ-OTA"},{id:"NZ-STL"},{id:"NZ-TAS"},{id:"NZ-TKI"},{id:"NZ-WKO"},{id:"NZ-WGN"},{id:"NZ-WTC"}-->
  </defs>
  <g
     inkscape:groupmode="layer"
     id="layer1"
     inkscape:label="NZ"
     transform="translate(0,570)"
     style="display:inline">
    <g
       id="g8"
       transform="translate(-21.54617,-801.77335)">
      <path
         id="NZ-AUK"
         title="Auckland"
         class="land"
         d="m 363.36,352.48 1.04,-0.08 -0.79,3.25 -1.66,-1.94 1.41,-1.23 z m -0.7,-4.24 1.31,0.74 -1.91,1.1 -0.41,2.96 -2.84,-0.55 -2.22,-2.28 -1.06,1.04 -0.05,-1.98 1.22,0.64 1.68,-0.91 1.53,1.01 0.23,-1.08 2.52,-0.69 z m -9.92,-0.98 0.51,2.68 -3.51,1.01 -0.04,-1.76 2.02,-0.07 1.02,-1.86 z m -2.95,-16.32 1.48,1.16 -0.18,1.92 -2.31,-1.17 1.01,-1.91 z m 9.88,-10.69 0.88,0.64 -0.65,2.39 -1.94,-0.57 0.05,-1.68 1.66,-0.78 z m -17.87,-1.16 3.26,4.8 4,1.46 -1.66,2.2 0.39,1.45 3.1,0.7 -5.4,1.05 0.09,1.74 1.77,1 -1.99,2.36 -0.5,-2.36 -1.01,1.79 1.24,0.66 0.15,2.4 -0.88,-0.26 -0.32,1.74 1.57,2.27 4.14,-1.45 -0.19,1.31 -4.15,1.28 3.33,8.89 -1.3,-0.13 -0.59,-1.37 -2.6,1.24 -1.38,-2.51 -0.7,0.12 0.46,3.82 1.38,1.4 1.99,-2.33 2.5,1.42 0.44,-0.88 2.21,0.03 0.53,1.21 1.03,0.13 1.87,1.87 1.16,-0.19 -0.3,-1.32 2.1,-0.35 2.6,3.47 1.47,-0.89 0.69,1.12 1.22,-1 3.61,3.55 0,0 -3.04,1.79 -2.09,-0.8 -0.07,1.88 -3.27,-1.17 -2.55,4.91 -2.09,-0.82 -0.49,0.71 2.57,3.56 -0.73,1.33 -2.34,-0.2 -0.18,2.72 -2.61,-0.64 -0.09,1.36 -1.61,0.96 0,0 -2.13,0.57 -0.79,1.78 -1.8,-0.98 -5.79,-14.56 4.7,-0.37 0.12,4.66 1.09,0.38 0.74,4.16 1.08,0.2 -1.28,-3.88 0.29,-1.15 2.52,-2.19 0.57,1.05 2.63,-2.87 -1.64,-1.99 -1.97,0.43 -0.92,-1.29 1.29,-1.16 -0.72,-1.36 0.63,-0.78 -3.56,0.47 -2.42,1.86 -0.3,2.34 -1.73,-1.05 -3.15,2.46 -2.69,-11.68 -9.92,-15.74 0.27,-1.73 2.59,-0.97 2.6,4.8 2.93,1.79 -0.48,1.78 1.46,1.2 1.28,-0.74 -1.06,-1.26 1.36,-1.42 -1.48,-3.78 0.87,-2.79 -1.4,-1.3 -1.37,0.96 -1.24,-1.32 -2.91,-0.36 0.64,-3.13 2.89,0.68 2.25,-1.84 0,0 2.69,-1.38 0,0 0.39,-1.41 0,0 2.02,-0.75 0.12,-1.34 2,-0.76 1.42,-2.36 0,0 0.57,1.09 z m 29.76,-4.42 0.29,1.92 1.57,0.69 -0.67,1.58 3,1.55 -1.4,2.83 2.87,2.96 -0.79,2.76 -1.97,-0.87 0.56,-1.44 -2.15,0.35 0.24,-2.31 -1.45,0.38 -3.61,-2.7 -0.03,-1.28 1.96,1 -0.14,-2.73 -1.78,-0.56 2.55,-0.89 -1.31,-2.41 2.26,-0.83 z"
         style="fill:#00ab00;fill-opacity:1;stroke:#00ac00;stroke-width:0.5;stroke-opacity:1"
         inkscape:connector-curvature="0" />
      <path
         id="NZ-BOP"
         title="Bay of Plenty"
         class="land"
         d="m 394.56,383.51 6.38,8.36 -2.61,-2.4 -0.34,1.2 -1.67,-0.92 -0.09,-1.52 1.61,0.48 -3.42,-3.94 0.14,-1.26 z m 9.66,80.28 1.91,-1.02 -0.91,-7.51 -2.86,0.58 -3.57,-6.18 0.78,-2.2 4.02,1.13 1.61,-1.44 -3.28,-3.85 1.85,-3.95 -4.01,-1.14 -0.47,-1.17 -2.08,0.27 0.09,-2.73 1.06,0.13 2.31,-2.78 1.52,3.18 5,-1.67 0.73,1.06 -0.92,1.97 2.29,0.99 1.25,-2.91 3.49,1.33 1,-6.58 -1.56,-1.81 -6.31,-2.65 -3.28,-10.53 -1.91,-1.4 -2.61,-0.06 -6.05,-5.17 -0.49,-1.68 1.39,-0.79 -1.4,-1.6 0.02,-1.87 -1.33,-0.56 0.76,-2.68 -4.6,-10.78 1,-0.9 -1.01,-2.03 0.98,-1.42 0.98,1.51 1.56,-0.04 -1.52,-1.84 2.13,-1.56 -0.48,-1.16 1.41,-1.56 0,0 2.01,4.44 -1.86,-0.22 -0.53,1.69 0.77,-0.56 1.1,1.45 -2.26,0.97 1.3,0.99 -0.41,0.72 0.65,1.53 1.25,0.55 -0.07,1.39 2.48,-0.63 -0.67,1.56 2.16,0.25 0.13,1.14 1.62,-1.28 1.22,0.42 -0.32,2.9 2.97,-1.49 -2.21,-1.49 -0.21,-2.13 10.04,6.78 1.44,-1.21 7.59,5.79 18.69,6.42 -2.89,-0.29 2.72,1.99 0.75,-1.59 9.13,-0.14 3.7,-1.74 7.7,-9.44 -0.61,-0.98 2.3,-2.98 4.79,-0.9 2.06,-2.75 1.89,0.62 1.53,-1.96 0.65,-1.17 2.81,-0.45 0,0 1.02,2.64 -5.2,1.32 1.05,3.28 -1.02,2.29 0.89,1.24 1.61,-1.47 1.44,1.54 -4.04,4.1 -4.21,13 -5.4,-4.2 -2.13,-0.19 1.25,2.16 -1.59,4.66 -6.58,3.21 0.42,1.97 -1.43,3.52 -8.89,4.6 0.7,4.29 -2.19,0.61 -1.13,2.61 -1.68,0.41 0,0 -0.8,1.68 -2.46,0.19 -2.19,3.85 -2.35,-0.15 -1.41,-1.6 -2.65,1.31 -1.85,-0.35 -0.91,1.98 -1.31,-0.03 -0.46,6.39 -4.15,4.32 0.74,2.96 -6.44,0.09 -1.24,2.93 1.15,3.08 -3.01,0.38 1.03,1.5 -2.2,0.6 -4.28,-3.85 z"
         style="fill:#00ab00;fill-opacity:1;stroke:#00ac00;stroke-width:0.5;stroke-opacity:1"
         inkscape:connector-curvature="0" />
      <path
         id="NZ-CAN"
         title="Canterbury"
         class="land"
         d="m 267.54,617.44 0.69,3.5 2.01,-0.47 0.66,1.48 1.37,0.06 -0.62,2.55 1.61,1.41 -0.81,1.76 1.04,1.05 1.59,-0.61 1.11,3.64 2.67,1.01 -1.56,2.64 1.9,-0.15 1.29,2.41 0.97,-1.54 3.22,-0.66 2.47,-4.71 0.94,-0.07 -2.4,-1.12 4.59,-3.48 -0.2,-0.79 6.64,-2.84 0.63,-5.47 2.34,-0.91 2.27,-3.51 1.5,0.28 2.87,-2.61 0.6,-2.57 2.18,2.31 1.1,-1.33 5.27,-1.05 0.76,1.14 3.25,-0.21 -0.41,1.89 0,0 -4.38,6.34 -0.11,4.27 -6.68,5.94 -2.79,4.07 -0.34,2.41 1.49,1.05 -4.06,-0.19 -3.49,3.02 -1.11,3.46 0.82,0.45 -8.1,15.74 0.2,1.78 -3,3.68 -4.01,1.89 -2.27,3.29 -1.51,-0.21 -8.71,4.57 -3.58,6.94 -0.63,6.93 0.65,7.11 -0.96,1.49 4.14,1.8 -5.08,1.09 -1.06,0.79 0.34,1.76 6.49,-2.8 1.33,-0.09 2,1.15 0.77,-0.06 2.44,0.97 2.07,0.61 0.39,2.19 1.17,-0.47 0.89,0.91 -0.45,1.06 1.23,1.47 -1.07,4.63 -5.23,2.95 -1.17,-1.84 0.94,-4.76 -1.13,-0.79 -1.17,3.9 1.56,4.16 -4.63,-0.56 -4.69,-3.4 -15.39,2.23 -12.13,5.49 -21.86,13.74 -7.49,8.44 0.43,3.68 -3.63,8.28 0.41,12.6 -1.02,5.87 0,0 -11.15,-2.34 -10.33,-4.54 -2.3,4.32 -3.94,2.8 -2.04,0.49 -0.89,-2.44 -1.12,-0.18 -3.89,1.83 -4.85,0.34 -0.93,-3.04 -2.92,-3.5 -1.97,-9.4 -1.99,-0.46 -2.12,1.43 -2.89,-1.35 -1.17,-4.46 -0.68,2.1 -2.96,-0.4 0.33,-6.86 -2.8,-0.16 -1.33,-1.02 0.66,-0.55 0,0 0.41,-1.99 0,0 0.4,-7.76 -1.57,-2.44 2.58,-2.78 0.41,-1.97 0.97,-0.06 1.63,-4.23 1.24,-0.16 -0.58,-3.99 0,0 6.11,-7.1 1.39,0.07 -0.09,-1.16 2.95,-1.12 0.08,-2.43 2.25,-1.17 -0.04,-2.09 2.24,-1.17 -0.02,-3.59 2.02,-0.48 3.38,-3.98 3.85,-1.77 0.95,1.42 1.88,-0.72 5.03,-4.6 3.15,1.17 1.75,-2.45 -0.63,-0.94 2.81,-1.38 -0.52,-1.28 4.8,-0.95 4.06,-5.12 0.79,1.18 1.51,-0.28 2.68,-3.1 -0.63,-0.94 1.49,-2.35 1.01,0.5 0.45,-1.36 4.36,-1.08 0.43,-3.42 3.04,-2.05 -0.2,-0.81 2.31,-0.59 1.59,0.86 1.48,-2.35 1.88,-0.73 0.9,0.84 5.84,-1.38 1.86,0.76 1.41,-1.43 -0.74,-0.6 1.3,-1.09 -0.06,-2.63 4.94,-2.21 1.45,-4.39 2.14,-0.83 -0.2,-0.81 5.01,-1.06 0.74,-2.93 2.25,-1.16 2.13,-4.34 2.02,-0.49 2.38,-2.96 3.88,-1.2 1.24,-5.14 0,0 5.08,-3.39 0.2,-2.68 1.28,-1.06 -0.4,-1.58 3.18,-0.17 z"
         style="fill:#00ab00;fill-opacity:1;stroke:#00ac00;stroke-width:0.5;stroke-opacity:1"
         inkscape:connector-curvature="0" />
      <path
         id="NZ-GIS"
         title="Gisborne District"
         class="land"
         d="m 479.7,386.4 5.74,1.16 -0.97,1.09 1.87,2.06 5.39,0.93 2.72,2.6 -5.52,8.53 -0.63,4.7 -2.18,2.45 1.46,4.03 -2.22,2.41 1.51,1.76 -1.79,2.85 0.96,1.23 0.48,7.74 -2.5,2.77 0.42,2.83 -5.68,6.12 -2.6,1.29 -0.47,1.51 -2.18,-1.88 -2.86,2.01 -0.23,1.89 1.51,0.35 -2.35,3.56 -0.52,7.2 0,0 -2.14,-0.68 0.14,-1.67 -1.74,-1.47 -1,0.94 -1.02,-0.95 -0.84,1.15 -0.35,-0.94 -2.54,0.2 0.31,-2.83 -0.73,0.84 -1.79,-0.63 -0.3,-2.3 -1.96,0.52 -2.88,-3.13 0.11,-2.19 -2.29,-0.42 1.51,-3.03 -5.56,-1.8 0.07,2.93 -7.09,-3.6 0,0 1.68,-0.41 1.13,-2.61 2.19,-0.61 -0.7,-4.29 8.9,-4.6 1.43,-3.52 -0.42,-1.97 6.58,-3.21 1.59,-4.66 -1.25,-2.16 2.13,0.19 5.4,4.2 4.21,-13 4.04,-4.1 -1.44,-1.54 -1.61,1.47 -0.89,-1.24 1.02,-2.29 -1.05,-3.28 5.2,-1.32 -1.02,-2.64 0,0 3.29,0.44 0.32,-0.98 z"
         style="fill:#00ab00;fill-opacity:1;stroke:#00ac00;stroke-width:0.5;stroke-opacity:1"
         inkscape:connector-curvature="0" />
      <path
         id="NZ-HKB"
         title="Hawke's Bay"
         class="land"
         d="m 419.32,531.02 -7.06,-1.11 -2.02,-1.43 -0.77,-1.09 1.52,-1.17 -1.95,-7.07 0,0 0.8,-1.72 0,0 -2.61,-2.3 0.54,-1.61 -2.36,-1 -0.95,-1.84 -3.29,-0.9 -0.74,0.85 -1.62,-1.85 1.17,-2.14 -0.54,-1.72 2.29,-10.03 1.43,-2.22 -1.56,-1.3 0.65,-1.91 -1.56,-1.3 1.7,-0.4 2.57,-2.95 2.88,-0.6 -0.8,-3.51 1.24,-2.95 -2.77,-1.63 1.69,-2.31 -0.41,-2.02 -3.39,-1.11 -1.11,-4.46 0,0 1.95,-2.4 0,0 4.23,3.77 2.2,-0.6 -1.03,-1.49 3.01,-0.37 -1.15,-3.08 1.24,-2.93 6.44,-0.09 -0.74,-2.96 4.15,-4.32 0.46,-6.39 1.31,0.03 0.91,-1.98 1.85,0.35 2.65,-1.31 1.41,1.61 2.35,0.15 2.19,-3.85 2.47,-0.18 0.8,-1.67 0,0 7.09,3.61 -0.07,-2.93 5.56,1.8 -1.51,3.03 2.29,0.43 -0.11,2.19 2.88,3.14 1.96,-0.52 0.31,2.3 1.79,0.63 0.74,-0.84 -0.3,2.83 2.54,-0.2 0.35,0.94 0.85,-1.15 1.02,0.95 1,-0.93 1.74,1.47 -0.14,1.67 2.14,0.69 0,0 0.06,4.98 4,1.86 -3.04,2.98 -2.42,5.01 -1.69,-5.43 2.03,-3.8 -1.2,-1.22 -0.72,0.92 -6.08,-1.36 -9.95,0.65 -8.38,3.06 -6.13,3.78 -0.87,3.16 -4.08,4.2 -1.59,5.22 0.6,1.42 1.41,-0.35 -0.04,3.96 1.76,3.69 2.42,1.26 2.59,-0.29 -3.11,4.45 -0.41,5.56 -4.59,9.33 -0.6,5.32 -3.3,4.76 -4.27,2.12 -2.2,8.16 z"
         style="fill:#00ab00;fill-opacity:1;stroke:#00ac00;stroke-width:0.5;stroke-opacity:1"
         inkscape:connector-curvature="0" />
      <path
         id="NZ-MBH"
         title="Marlborough District"
         class="land"
         d="m 331.9,564.89 -0.58,5.97 -0.91,-0.59 -3.49,2.31 -0.98,-0.75 -2.58,1.08 5.01,-3.95 1.96,0.47 0.13,-1.55 -2.25,-0.21 3.69,-2.78 z m -15.1,-9.15 1.15,0.04 -0.35,1.33 -0.69,0.56 -1.02,-1.75 -0.56,2.72 -2.22,0.57 1.19,0.28 -0.42,0.67 -3.96,1.23 0.4,-1.57 -2.13,1.6 1.47,0.63 -1.63,1.06 0.68,2.96 1.69,-2.98 4.74,0.49 -3.21,0.87 0.57,2.18 -1.48,-0.38 -0.32,1.58 -2.29,0.46 0.3,1.07 1.67,-0.07 1.12,-0.23 0.29,1.16 -0.63,2.62 -2.17,-0.31 0.42,0.94 -1.74,0.49 0.47,1.06 1.48,-0.97 4.58,-2.1 1.65,-0.36 1.95,-1.62 2.08,0.43 1.89,-1.16 -2.7,0.37 -0.28,-1.04 -6.71,2.61 0.93,-2.12 -1.12,-1.42 2.07,-0.83 -0.79,-0.18 1.13,-0.37 0.14,-1.56 1.64,-0.33 -0.96,1.9 0.61,1.86 1.09,-2.49 2.01,0.22 -1.04,-2.02 1.15,-2.37 -4.49,0.94 0.76,-0.46 -0.68,-0.63 2.03,-0.16 -0.91,-1.21 1.23,0.1 0.73,-1.47 0.3,2.6 1.73,-1 1.57,2.89 -0.41,-2.96 1.76,1.28 0.8,-1.86 0.72,1.41 0.57,0.06 0.14,1.45 -1.23,0.18 2,1.43 0.88,-1.6 2.23,-0.29 -2.5,2.97 0.47,1.57 -0.87,-0.56 -1.49,1.42 -0.23,-2.61 -0.64,1.43 -0.67,-0.38 0.57,2.11 1.53,0.2 0.11,1.57 -1.31,0.93 -0.51,0.6 -1.22,-1.09 -1.91,1.91 -0.24,-1.25 -2.74,0.61 -1.04,1.83 2.47,0.05 4.27,-1.16 -0.45,1.32 1.64,-0.38 0.78,-0.3 3.04,-0.03 1.38,-1.5 -1.04,2.86 -2.3,1.15 0.48,1.45 -1.37,-0.45 -0.38,1.37 -2.37,0.8 2.25,-3.08 -1.12,-0.28 -0.44,-0.18 -1.26,0.73 -3.33,7.26 0.13,2.04 2.18,2.57 -1.21,1.24 3.51,0.31 1.23,7.89 3.8,0.92 -4.48,7.6 -4.36,4.88 0,0 0.41,-1.89 -3.25,0.21 -0.76,-1.14 -5.27,1.05 -1.1,1.33 -2.18,-2.31 -0.6,2.57 -2.86,2.61 -1.49,-0.28 -2.27,3.51 -2.34,0.92 -0.63,5.47 -6.64,2.84 0.2,0.79 -4.59,3.48 2.4,1.12 -0.94,0.07 -2.46,4.71 -3.21,0.66 -0.97,1.54 -1.29,-2.41 -1.9,0.15 1.56,-2.64 -2.67,-1.01 -1.11,-3.64 -1.59,0.61 -1.04,-1.05 0.82,-1.76 -1.61,-1.41 0.62,-2.55 -1.37,-0.06 -0.66,-1.48 -2.01,0.47 -0.68,-3.5 0,0 0,0 0,0 0,0 0,0 0.69,-3.43 1.97,-1.03 -0.35,-1.02 3.38,-3.86 -0.81,-1.7 3.92,-5.48 -0.81,-1.7 3.16,-1.19 2.19,-3.12 -0.02,-1.99 3.37,-1.87 0.94,-3.51 5.11,-0.27 -2.09,-2.62 1.74,-1.83 -0.39,-1.56 5.18,-4.08 -0.14,-1.67 2.51,-3.63 3.48,-1.71 1.07,-6.75 0,0 1.25,1.06 1.02,-0.09 3.86,-1.62 -0.68,-0.66 -2.17,1.2 -0.71,-1.06 2.99,-1.58 0.67,-1.63 0.8,-0.38 0.9,0.12 1.05,-2.31 0.78,0.32 -0.88,2.7 1.07,0.27 2.25,-2.34 -0.44,-0.78 2.81,-2 0.58,1.05 z m -1.31,-7.49 -2.12,4.91 -5.07,4.15 0.86,-2.59 -1.08,0.44 0.44,-3.32 0.45,1.21 0.68,-0.43 -0.32,-1.94 0.9,-2.9 1.78,-1.43 -0.17,4.07 1.04,-1.48 1.26,0.31 0.21,-0.82 -1.86,0.03 2.57,-2.06 0.43,1.85 z"
         style="fill:#00ab00;fill-opacity:1;stroke:#00ac00;stroke-width:0.5;stroke-opacity:1"
         inkscape:connector-curvature="0" />
      <path
         id="NZ-MWT"
         title="Manawatu-Wanganui"
         class="land"
         d="m 419.32,531.02 0,0 0.01,3.2 -2.28,0.28 -3.2,2.26 -8.39,12.37 0,0 0.22,-1.57 -1.56,-2.22 -3.13,-1.58 -2.45,-0.15 -0.21,2.06 -2.77,-0.57 -3.09,3.23 -0.89,-0.77 -4.08,1.37 -1.67,-0.46 1,-2.38 -0.94,-1.32 -2.98,0.07 -0.26,1.52 -2.46,1.28 -5.84,-3.02 -1.26,2.48 -2.65,-0.92 -0.94,1.51 -3.18,0.7 -3,-0.5 0.68,-1.39 -2.76,-1.26 0,0 3.24,-11.66 0.31,-8.91 -1.18,-6.88 -6.49,-10 -5.08,-4.35 -4.63,-1.14 0,0 -0.66,-0.44 1.68,-2.44 4.98,-2.92 -0.07,-3.02 2.58,-1.02 -1.01,-3.47 1.15,-2.67 -1.52,-3.25 -2.79,-2.22 -0.79,-2.16 0.97,-1.48 -2.93,-2.43 1.88,-4.02 2.25,-0.05 0.99,-3.39 1.69,-0.39 -0.58,-0.87 1.74,-1.77 2.13,0.27 -1.04,-2.05 -3.31,-0.09 -0.33,-3.42 -1.15,0.72 -1.92,-1.44 0.3,-3.93 -0.83,-0.77 -1.26,1.03 -1.01,-1.52 -0.69,-3 3.03,-2.25 0,0 3.09,-1.18 0.41,-4.24 6.32,-2.14 4.75,0.34 1.85,-2.06 0.95,0.45 0.65,-2.41 0.49,1.7 3.2,-1.5 3.18,0.4 1.55,1.84 3.71,-1.7 -4.55,9.6 2.43,3.12 -1.45,2.19 1.6,2.37 -0.83,3.58 4.73,-0.21 -2.81,3.55 1.49,2.68 -3.68,8.55 9.76,1.35 2.4,-1.77 -0.59,-0.86 1.51,-1.14 -0.33,-0.96 3.09,-1.22 0.3,-1.48 8.16,-0.5 0,0 1.11,4.47 3.39,1.11 0.41,2.01 -1.69,2.31 2.77,1.63 -1.24,2.95 0.8,3.52 -2.88,0.6 -2.57,2.95 -1.7,0.4 1.56,1.3 -0.65,1.91 1.57,1.3 -1.43,2.22 -2.3,10.03 0.54,1.72 -1.17,2.14 1.62,1.84 0.74,-0.85 3.29,0.9 0.95,1.84 2.36,1 -0.53,1.61 2.61,2.31 0,0 -0.8,1.72 0,0 1.95,7.07 -1.51,1.18 0.77,1.09 2.02,1.43 z"
         style="fill:#00ab00;fill-opacity:1;stroke:#00ac00;stroke-width:0.5;stroke-opacity:1"
         inkscape:connector-curvature="0" />
      <path
         id="NZ-NSN"
         title="Nelson City"
         class="land"
         d="m 290.65,571.88 0,0 0.77,1.31 -1.9,1.32 0.57,2.04 -3.02,1.74 -1.07,-0.98 0,0 0.1,-1.57 4.17,-2.57 z"
         style="fill:#00ab00;fill-opacity:1;stroke:#00ac00;stroke-width:0.5;stroke-opacity:1"
         inkscape:connector-curvature="0" />
      <path
         id="NZ-NTL"
         title="Northland"
         class="land"
         d="m 278.49,235.78 1.62,1.08 -1.71,0.56 0.01,3.83 -1.62,0.63 0.19,-1.31 -1.87,-0.14 -0.02,1.15 -1.85,-0.03 0.79,0.66 1.94,-0.05 -0.46,1.27 1.09,0.12 0.55,2.13 0.42,-1.39 -1.24,-1.82 1.26,-0.23 1.93,6.8 5.38,6.09 -0.78,1 1.54,2.13 3.33,1.04 -1.61,2.12 0.14,2.8 0.97,0.15 1.52,0.29 -0.69,-1.7 1.8,-0.64 -1.92,-4.36 3.98,-1.24 0.97,-0.16 1.45,-0.44 0.83,1.22 -3.95,2.23 1.75,3.72 3.94,0.7 1.66,-3.67 3.38,2.58 1.81,-0.89 2.29,3.17 -1.68,1.75 0.59,1.08 1.01,-0.03 0.03,-1.72 1.13,0 -0.59,-1.47 2.16,-0.97 1.69,1.57 1.42,-0.48 2.74,5.25 4.16,-0.4 2.04,2.12 -2.3,1.82 -2.29,-2.57 -0.99,0.77 1.27,1.56 -1.59,0.88 3.76,0.19 0.37,3.01 2.42,2.17 2.9,0.28 -1.12,-1.17 -1.68,-0.81 -1.1,-2.1 3.54,2.04 0.16,-1.46 1.58,-1.66 1.19,0.43 0.41,-1.92 1.58,-0.72 -1.67,2.96 1.27,0.98 -1.08,0.83 2.13,2.99 1.25,1.25 -0.43,0.96 -1.54,-2.08 -0.4,1.07 2.04,2.54 -0.4,1.1 2.71,-0.37 -0.18,1.28 2.08,2.67 -0.95,0.37 0.69,1.75 2.45,1.14 -0.02,2.94 -0.89,-0.5 -0.39,1.92 0.78,2.05 1.74,0.14 -0.79,3.36 1.7,3.2 -2.65,-0.15 -1.82,-3.78 -4.56,0.18 -0.37,-1.3 -0.86,3.15 1.49,-1.28 0.36,1.34 4.93,1.03 -1.15,1.49 -0.36,3.87 1.56,3.68 1.3,1.05 1.84,-0.27 1.35,3.82 0,0 -1.42,2.36 -2,0.76 -0.12,1.34 -2.01,0.75 0,0 -0.39,1.41 0,0 -2.69,1.38 0,0 -0.95,-0.58 -1.29,1.96 -2.73,-1.48 1.42,-2.07 0.53,-0.32 2.15,-1.53 -0.51,-0.11 -1.99,1.13 0.07,-1.04 -1.97,-0.98 -1.17,-0.59 0.64,-2.4 -2.17,0.35 -0.03,1.82 0.33,0.96 0.99,0.84 1.29,-0.54 1.24,2.14 -2.58,1.27 -4.15,-4.5 -2.36,0.13 -2.9,-2.49 4.35,6 2.31,1.49 0.94,2.83 -1.43,2.62 -3.83,0.27 -1.79,-5.89 -3.66,-6.44 -21.14,-28.34 2.31,-6.1 3.76,-0.6 2.74,-2.93 -1.73,-0.51 -0.69,2.44 -4.29,0.54 -2.35,5.99 -11.75,-15.62 0.37,-1.42 2.66,0.6 1.34,-1.9 -0.89,-7.14 -11.5,-16.99 -7.59,-7.16 0.94,-2.64 5.13,1.58 1.77,-1.87 4.36,0.54 1.64,-1.54 z"
         style="fill:#00ab00;fill-opacity:1;stroke:#00ac00;stroke-width:0.5;stroke-opacity:1"
         inkscape:connector-curvature="0" />
      <path
         id="NZ-OTA"
         title="Otago"
         class="land"
         d="m 96.7,745.5 5.17,-0.39 1.44,-1.46 3.05,-0.52 3.98,-3.31 2.2,1.33 3.62,-4.4 0.48,-5.07 0.89,-1.24 3.71,-1.05 0.33,-3.17 1.64,-0.6 -0.2,-0.84 5.03,-2.13 0.68,1.57 3.79,0.13 2.32,-2.66 0.88,2.4 1.61,0.92 3.24,-3.31 4.76,-1.46 0.39,-4.05 4.34,0.48 0,0 0.58,3.99 -1.24,0.16 -1.63,4.23 -0.97,0.06 -0.41,1.97 -2.58,2.78 1.58,2.44 -0.4,7.76 0,0 -0.41,1.99 0,0 -0.66,0.55 1.33,1.02 2.8,0.16 -0.33,6.86 2.96,0.4 0.68,-2.1 1.17,4.46 2.89,1.35 2.12,-1.43 1.99,0.46 1.97,9.4 2.92,3.5 0.93,3.04 4.85,-0.34 3.89,-1.83 1.13,0.18 0.89,2.44 2.04,-0.49 3.94,-2.8 2.3,-4.32 10.33,4.54 11.15,2.34 0,0 -2.36,4.34 -4.17,4.16 0.07,1.71 -2.34,1.74 -2.32,4.8 -1.48,4.6 0.23,1.64 1.57,1 -2.31,3.75 0.82,1.89 -2.99,3.3 -1.19,3.44 -2.17,1.16 -0.65,3.1 -3.24,2.92 -0.02,1.15 2.7,-0.39 2.71,2.27 -3.11,0.98 -0.01,1.32 1.66,0.73 3.16,-1.72 -0.14,2.37 -0.09,1.64 -2.3,0.98 -0.93,0.68 -2.19,-0.42 -0.92,0.36 -3.53,0.45 -7.64,2.84 -3.77,5.24 -1.14,5.57 -10.86,9.01 -3.73,1.74 -0.62,2.9 0.8,2.7 -0.97,1.35 -0.89,0.79 -1.19,0.43 -0.98,1.66 -3.37,1.21 -1.08,2.1 -1.25,-1.14 -2.89,0.09 -1.25,2.39 -2.68,0.31 -0.89,1.74 -2.83,-0.97 -3.52,1.87 0,0 1.13,-3.46 -0.96,-1.59 1.28,-0.2 1.11,-2.09 -3.54,-2.79 1.58,-3.54 -2.59,-1.87 2.24,-2.49 0.59,-7.27 -2.94,-2.99 1.57,-1.89 -1.13,-1.78 0.79,-0.94 -3.41,-3.75 1.1,-6.45 -1.56,-1.92 -1.94,0.75 0.97,-2.27 -1.34,-4.85 1.23,-4.57 2.97,-3.98 1.6,-7.2 2.82,-2.02 -5.53,-8.19 -2.27,1.8 -5.03,8.8 -1.39,-1.66 -0.78,0.93 -2.02,-0.49 -0.14,-4.01 -3.36,-1.54 -0.65,-5.37 -5.11,3.8 -8.57,1.03 -0.8,-5.63 -3.4,-4.33 1.89,-3.5 0.99,-0.06 0.78,-3.08 -0.47,-0.75 -2.21,0.82 -4.42,-4.86 0.47,-1.41 -1.14,-2.36 0.55,-2.36 1.69,-0.01 1.41,-4.22 -1.54,-1.89 2.75,-7.46 -0.28,-2.04 2.23,-2.36 z"
         inkscape:connector-curvature="0"
         style="fill:#00ab00;fill-opacity:1;stroke:#00ac00;stroke-width:0.5;stroke-opacity:1"
         sodipodi:nodetypes="cccccccccccccccccccccccccccccccccccccccccccccccccccccccccccccccccccccccccccccccccccccccccccccccccccccccccccccccccccccccccccccccccccccccccccccccccccccccccccccccc" />
      <path
         id="NZ-STL"
         title="Southland"
         class="land"
         d="m 78.02,866.87 4.21,2.11 1.14,4.05 3.29,2.27 -0.31,1.29 2.39,0.33 0.78,1.99 -0.93,0.95 -2.95,-0.91 -0.75,1.35 -1.58,-1.47 -1.5,0.75 0.47,1.27 1.37,-0.33 0.36,1.52 4.18,0.4 -2.24,1.55 2.01,0.43 0.75,-1.36 1.06,-0.72 -0.15,-0.98 1.08,-1.07 -0.65,3.07 2.04,2.36 -2.51,2.58 0.18,1.03 -1.82,2.66 -1.92,-1.14 -1.2,1.4 -3.67,-0.06 -2,2.4 -3.03,1.25 -2.42,-1.19 -1.41,0.62 -0.96,-1.78 -1.15,0.92 0.26,1.54 -0.78,1.63 -0.43,2.41 -1.28,0.4 0.24,-1.39 -3.04,2.47 -1.91,-1.12 -1.47,0.43 0.55,-3.58 4.22,-2.85 -0.1,-1 0.62,-1.96 -1.15,-1.35 2.4,-2.82 3.5,0.19 -1.69,-5.68 0.64,-0.36 -0.09,1.47 1.82,-0.25 1.55,-2.58 -0.62,-3.77 -1.97,-2.99 0.69,-4.59 2.68,-1.58 1.78,0.96 z m -51.8,-52.84 1.01,0.66 -1.84,1.2 -1.46,-0.39 0.21,-1 z m 5.46,-8.08 1.39,1.56 0.3,4.05 -1.46,2.73 -3.81,0.41 0.01,-1.83 -1.81,-0.67 1.57,-0.7 -1.03,-1.66 -4.29,4.31 3.76,-6.83 z m 11.05,-24.73 -0.55,2.93 2.09,5.18 -1.06,0.31 -4.26,-3.4 z m 44.16,-47.78 2.22,0.65 3.38,-1.6 4.28,1.4 0,2.13 2.82,2.29 -2.65,2.22 0.9,0.89 -1.13,4.09 0,0 -1.96,0.12 -2.23,2.36 0.28,2.04 -2.75,7.46 1.54,1.89 -1.41,4.22 -1.69,0.01 -0.55,2.36 1.14,2.36 -0.47,1.41 4.42,4.86 2.21,-0.82 0.48,0.75 -0.78,3.08 -0.99,0.06 -1.89,3.5 3.4,4.33 0.8,5.63 8.57,-1.03 5.11,-3.8 0.65,5.37 3.36,1.54 0.14,4.01 2.02,0.49 0.78,-0.92 1.39,1.66 5.03,-8.8 2.27,-1.8 5.53,8.19 -2.82,2.02 -1.6,7.2 -2.97,3.98 -1.23,4.57 1.34,4.85 -0.97,2.28 1.94,-0.75 1.56,1.93 -1.1,6.45 3.41,3.75 -0.79,0.95 1.13,1.79 -1.57,1.89 2.94,2.99 -0.59,7.27 -2.24,2.5 2.59,1.87 -1.58,3.54 3.55,2.79 -1.11,2.09 -1.28,0.2 0.96,1.6 -1.12,3.46 0,0 -2.11,-0.42 1.27,-1.3 -1.57,-1.1 -0.86,3.34 -1.46,0.48 -8.7,-0.65 -0.56,-2.91 -1.56,-1.61 -3.03,-0.7 -4.71,0.99 0.25,-1 1.54,0.02 -1.7,-0.89 -1.76,0.33 1.35,1.48 -2.54,1.24 -5.91,-0.22 0.37,-1.62 -1.06,-2.18 -1.93,0.85 2.32,3.47 -1.2,0.75 -2.43,-3.91 -1.47,-0.2 -0.25,-1.99 5.91,-1.75 -1.11,-0.76 -0.65,-1.18 -1.86,0.53 0.94,1.9 -1.23,0.31 -2.75,-5.72 -2.95,-2.96 -2.96,-0.25 -1.2,1.14 0.66,1.26 -4.88,-1.55 -1.33,0.7 -2.04,-0.06 -1.7,1.26 -1.89,-1.42 -0.16,-1.76 0,-2.11 -0.56,-2 -3.88,-3.77 -4.42,-2.23 -3.86,-0.15 -1.98,2.39 -0.38,3.25 -4.95,0.61 -13.38,-2.96 -3.63,1.3 -0.57,-1.04 -3.73,-0.25 -2.44,-3.01 4.13,-2.45 0.45,-2.31 -1.08,-0.92 -2.01,1.57 -1.21,-1.32 -1.8,1.81 2.07,-5.93 5.85,-1.03 -0.27,-1.27 -4.58,0.18 -1.97,1.26 -4.85,2.35 -0.92,-0.79 -0.88,-5.25 0.91,-4.94 15.16,-2.93 3.65,-2.04 -4.32,-1.23 -3.61,1.28 0.91,-3.33 7.25,-2.04 1.22,-1.44 -9.15,3.35 -0.18,-3.86 5.52,-2.43 0.46,-0.05 3.38,-2.9 -9.03,4.38 -2.65,-0.23 3.11,-9.66 2,-0.34 -1.21,-0.88 0.82,-2.99 2.01,-2.76 4.14,2.36 0.72,0.17 2.33,1.73 1.57,0.57 1.82,4.7 0.74,-0.25 -1.98,-4.62 -2.99,-2.37 1.06,-1.3 4.29,-0.28 0.06,-1.21 -5.24,0.78 -1.41,-3.44 0.71,-2.92 -0.78,-1.46 1.55,-1.91 3.52,4.45 0.1,-0.44 -3.07,-4.04 2.01,-2.89 1.12,1.07 -0.63,-2.46 1.71,-1.25 0.02,-0.98 7.41,-7.73 1.98,3.62 -0.35,1.84 1.36,0.92 -0.82,2.04 1.18,-1.33 1.16,0.58 -2.27,-2.65 0.8,-0.37 -1.9,-5.78 3.59,-2.75 1.64,0.18 0.2,-1.29 1.41,-1.26 1.16,-0.66 0.2,-1.78 1.91,-1.44 0.72,-0.93 4.11,-2.07 0.49,-1.3 1.27,-0.47 1.67,1.83 -0.4,-5.96 4.47,-5.76 3.4,-0.98 -0.94,-2.4 3.83,0.15 0.98,-2.13 z"
         inkscape:connector-curvature="0"
         style="fill:#00ab00;fill-opacity:1;stroke:#00ac00;stroke-width:0.5;stroke-opacity:1"
         sodipodi:nodetypes="ccccccccccccccccccccccccccccccccccccccccccccccccccccccccccccccccccccccccccccccccccccccccccccccccccccccccccccccccccccccccccccccccccccccccccccccccccccccccccccccccccccccccccccccccccccccccccccccccccccccccccccccccccccccccccccccccccccccccccccccccccccccccccccccccccccccccccccccccccccccccccccccccccc" />
      <path
         id="NZ-TAS"
         title="Tasman District"
         class="land"
         d="m 301.63,563.39 0,0 -1.07,6.75 -3.48,1.71 -2.51,3.63 0.14,1.67 -5.18,4.08 0.39,1.56 -1.74,1.83 2.09,2.62 -5.11,0.27 -0.94,3.51 -3.37,1.87 0.02,2 -2.19,3.12 -3.16,1.19 0.81,1.7 -3.92,5.49 0.81,1.7 -3.37,3.86 0.35,1.02 -1.96,1.03 -0.69,3.44 0,0 -3.27,0.08 0.4,1.59 -1.28,1.07 -0.2,2.68 -5.07,3.39 0,0 -1.77,1.84 -2.84,-1.24 -0.95,-6.91 -3.28,0.08 -1.86,-2.78 -2.6,0.11 -1.44,-2.65 0.83,-1.76 -1.69,-0.53 -1.32,-2.98 1.25,-1.62 -0.51,-1.25 1.83,-1.25 0.08,-4.35 -0.88,-0.82 0.79,-2.3 3.96,-2.02 1.3,0.95 -0.52,-3.23 3.57,-1.6 0.47,-4.71 3.11,-2.28 -0.09,-3.08 1.71,-0.92 1.98,0.97 2.99,-1.96 0.51,-4.18 -1.22,-1.82 3.59,-1.05 1.35,-1.93 -2.46,-0.22 -0.69,-2.03 -5.21,-5.48 0.31,-1.55 -4.31,-0.09 -2.16,2.24 -0.68,-2.59 3.03,-3.42 -3.28,-1.03 -1.68,-3.62 -1.16,0.73 0.48,-3.29 -1.1,-1.8 0,0 12.21,-9.79 -0.76,2.36 4.67,-2.32 -0.26,-1.56 -2.99,1.53 3.44,-3.72 6.38,-0.37 7.75,1.79 0.77,0.68 -10.23,-1.87 -2.98,3.62 -0.06,3.21 -0.93,0.43 3.15,5.89 4.79,3.62 2.5,-2.27 1.04,1.25 0.21,-1.75 1.78,-0.36 0.97,3.74 1.34,0.08 -0.59,4.67 1.03,0.72 -1.87,2.88 -0.79,2.36 1.3,1.82 -1.17,2.46 3.14,3.3 0.89,2.11 -1.39,0.58 0.6,1.18 2.65,0.18 1.88,2.06 0,0 1.07,0.97 3.02,-1.74 -0.56,-2.03 1.89,-1.33 -0.77,-1.3 0,0 0.02,-1.1 3.09,-2.4 1.14,0.97 2.01,-1 1.18,-2.62 3.12,-2.7 0.38,0.33 z"
         style="fill:#00ab00;fill-opacity:1;stroke:#00ac00;stroke-width:0.5;stroke-opacity:1"
         inkscape:connector-curvature="0" />
      <path
         id="NZ-TKI"
         title="Taranaki"
         class="land"
         d="m 340.94,444.3 0.14,0.05 0,0 1.7,1.43 5.77,-0.03 2.35,2.09 0,0 -3.03,2.25 0.69,3 1.01,1.52 1.26,-1.03 0.83,0.77 -0.3,3.93 1.93,1.44 1.15,-0.72 0.33,3.42 3.31,0.08 1.05,2.05 -2.13,-0.27 -1.74,1.77 0.58,0.87 -1.69,0.39 -0.99,3.4 -2.25,0.05 -1.88,4.02 2.93,2.43 -0.97,1.48 0.8,2.17 2.79,2.21 1.52,3.26 -1.15,2.66 1.02,3.47 -2.58,1.02 0.07,3.02 -4.98,2.92 -1.68,2.44 0.66,0.44 0,0 -2.33,0.32 -6.21,-2.58 -5.53,-4.3 -3.11,-4.22 -4.72,-2.75 -5.46,-0.82 -6.48,-2.94 -4.67,-5.43 -1.57,-6.59 1.56,-4.42 9.23,-6.84 2.36,-0.25 4.34,-3.14 6.4,0.26 2.91,-1.41 4.72,-5.46 2.04,-7.43 z"
         style="fill:#00ab00;fill-opacity:1;stroke:#00ac00;stroke-width:0.5;stroke-opacity:1"
         inkscape:connector-curvature="0" />
      <path
         id="NZ-WKO"
         title="Waikato"
         class="land"
         d="m 370.39,334.59 1.77,0.09 1.14,1.58 0.55,1.17 1.28,-0.86 1.75,1.57 -0.81,2.54 2.59,1.29 0.16,2.16 -1.18,-0.04 0.16,1.16 1.87,-0.21 0.84,1.68 -0.71,1.79 6.74,-3.07 1.55,1.26 0.16,1.1 -2.74,0.9 -0.26,1.55 -1.87,0.81 -1.01,2.98 0.71,0.66 1.2,-2.46 1.7,-0.6 2.25,1.55 1.84,7.22 0.77,3.11 0.02,6.42 -1.22,-1.39 -0.12,1.22 3.16,8.91 0,0 -1.4,1.56 0.48,1.16 -2.13,1.56 1.52,1.84 -1.56,0.04 -0.98,-1.51 -0.97,1.43 1.01,2.03 -0.99,0.9 4.6,10.78 -0.76,2.68 1.34,0.56 -0.02,1.88 1.4,1.6 -1.39,0.79 0.49,1.68 6.05,5.17 2.61,0.07 1.91,1.4 3.28,10.53 6.31,2.65 1.56,1.81 -1,6.58 -3.49,-1.33 -1.25,2.91 -2.29,-0.99 0.92,-1.97 -0.72,-1.06 -5,1.67 -1.52,-3.18 -2.31,2.78 -1.06,-0.13 -0.09,2.73 2.08,-0.27 0.47,1.17 4.01,1.14 -1.84,3.95 3.28,3.85 -1.61,1.44 -4.02,-1.13 -0.78,2.2 3.57,6.19 2.86,-0.58 0.92,7.51 -1.91,1.02 0,0 -1.95,2.4 0,0 -8.16,0.5 -0.3,1.48 -3.09,1.22 0.33,0.96 -1.51,1.14 0.59,0.86 -2.4,1.77 -9.76,-1.35 3.68,-8.54 -1.49,-2.69 2.81,-3.54 -4.74,0.21 0.83,-3.58 -1.6,-2.37 1.45,-2.19 -2.43,-3.13 4.55,-9.6 -3.71,1.7 -1.55,-1.83 -3.18,-0.4 -3.2,1.5 -0.49,-1.7 -0.65,2.41 -0.95,-0.45 -1.85,2.06 -4.75,-0.35 -6.31,2.14 -0.42,4.23 -3.09,1.18 0,0 -2.35,-2.09 -5.77,0.03 -1.7,-1.43 0,0 0.69,-15.91 3.14,-3.95 -0.06,-5.16 -1.4,-4.37 2.21,0.52 1.59,-1.82 -0.39,1.54 1.21,0.81 0.79,0.6 1.45,-0.87 -1.36,-0.04 0.37,-1 3.41,-1.62 -1.09,-1.35 -1.58,0.68 -0.29,-0.99 -2.24,1.99 0.61,-3.08 1.08,-0.66 0.91,0.85 1.58,-3.13 -2.46,-0.25 0.25,1.85 -1.47,0.72 -1.49,-7.06 0.78,-1.65 2.63,-1.31 4.06,0.22 0.8,-0.97 -2.63,0.15 -1.41,-0.81 -1.01,1.23 -2.73,-11.6 -2.62,-6.17 0.04,-3.11 1.49,0.57 2.6,-3.08 0,0 1.61,-0.96 0.09,-1.36 2.61,0.64 0.18,-2.72 2.34,0.2 0.74,-1.33 -2.57,-3.56 0.49,-0.71 2.09,0.82 2.55,-4.9 3.27,1.17 0.07,-1.87 2.09,0.81 3.04,-1.79 0,0 0.63,6.53 1.38,3.04 2.64,0.66 5.25,-2.05 -1.55,-9.54 -3.64,-5.89 1.12,-0.42 0.25,-1.86 2.48,-0.9 -2.91,-3.46 0.23,-5.08 -4.26,-4.3 0.02,-2.04 1.59,-0.65 z"
         style="fill:#00ab00;fill-opacity:1;stroke:#00ac00;stroke-width:0.5;stroke-opacity:1"
         inkscape:connector-curvature="0" />
      <path
         id="NZ-WGN"
         title="Wellington"
         class="land"
         d="m 353.91,551.22 -0.43,1.64 -2.53,1.69 1.94,-3.32 1.02,-0.01 z m 7.33,-5.98 2.76,1.26 -0.68,1.4 3.01,0.5 3.17,-0.7 0.94,-1.5 2.65,0.91 1.26,-2.48 5.84,3.02 2.46,-1.27 0.27,-1.52 2.98,-0.07 0.94,1.32 -1,2.38 1.67,0.46 4.08,-1.37 0.89,0.77 3.09,-3.23 2.77,0.58 0.21,-2.06 2.45,0.14 3.13,1.59 1.56,2.22 -0.22,1.57 0,0 -1.55,6.26 -3.28,2.9 -2.87,8.39 -2.83,2.87 -1.3,3.44 -3.25,1.62 -2.71,4.39 -5.27,2.74 -9.51,8.24 -2.52,-0.02 -3,2.17 -2.18,-0.34 -1.58,-4.24 0.89,-4.85 -2.81,-1.76 0.01,-1.56 -4.01,0.27 -4.83,3.43 -1.98,-1.52 -0.77,-2.66 2.51,-5.21 -0.97,-1.39 -1.25,-0.3 -2.67,2.16 0.57,2.49 1.38,-1.05 -0.63,2.66 -0.77,-0.94 -3.31,1.85 -2.26,-1.09 -1.78,-2.93 1.22,-2.51 2.7,-0.93 3.56,-5.59 1.74,-1.16 -0.1,-2.03 3.63,-2.53 1.73,-6.03 2.97,-2.92 2.85,-6.24 z"
         style="fill:#00ab00;fill-opacity:1;stroke:#00ac00;stroke-width:0.5;stroke-opacity:1"
         inkscape:connector-curvature="0" />
      <path
         id="NZ-WTC"
         title="West Coast"
         class="land"
         d="m 247.53,548.79 1.1,1.8 -0.48,3.29 1.16,-0.72 1.68,3.62 3.28,1.03 -3.02,3.42 0.69,2.59 2.16,-2.24 4.31,0.09 -0.31,1.55 5.21,5.48 0.69,2.03 2.46,0.23 -1.35,1.93 -3.59,1.05 1.22,1.83 -0.5,4.18 -2.98,1.96 -1.98,-0.97 -1.7,0.92 0.09,3.09 -3.11,2.28 -0.47,4.71 -3.57,1.6 0.52,3.23 -1.3,-0.95 -3.96,2.02 -0.79,2.3 0.88,0.82 -0.08,4.35 -1.82,1.25 0.51,1.25 -1.25,1.62 1.33,2.98 1.69,0.53 -0.83,1.76 1.44,2.65 2.6,-0.11 1.86,2.78 3.29,-0.08 0.95,6.91 2.84,1.24 1.78,-1.84 0,0 -1.24,5.14 -3.88,1.2 -2.38,2.96 -2.02,0.49 -2.13,4.34 -2.25,1.16 -0.73,2.93 -5.01,1.06 0.2,0.81 -2.14,0.83 -1.45,4.39 -4.94,2.21 0.06,2.63 -1.3,1.1 0.74,0.6 -1.41,1.44 -1.86,-0.76 -5.84,1.38 -0.89,-0.83 -1.88,0.73 -1.48,2.35 -1.59,-0.86 -2.31,0.59 0.2,0.81 -3.03,2.05 -0.43,3.42 -4.36,1.08 -0.45,1.36 -1.01,-0.5 -1.49,2.35 0.63,0.94 -2.68,3.1 -1.51,0.28 -0.79,-1.18 -4.06,5.12 -4.8,0.95 0.52,1.29 -2.81,1.38 0.63,0.95 -1.75,2.45 -3.15,-1.17 -5.03,4.6 -1.87,0.72 -0.95,-1.42 -3.85,1.77 -3.38,3.99 -2.02,0.48 0.03,3.59 -2.24,1.17 0.04,2.09 -2.25,1.17 -0.08,2.43 -2.95,1.12 0.09,1.17 -1.39,-0.07 -6.11,7.1 0,0 -4.34,-0.48 -0.39,4.05 -4.76,1.46 -3.24,3.31 -1.6,-0.92 -0.87,-2.4 -2.32,2.66 -3.79,-0.13 -0.68,-1.57 -5.03,2.13 0.2,0.84 -1.64,0.6 -0.33,3.17 -3.71,1.05 -0.89,1.24 -0.48,5.07 -3.62,4.4 -2.2,-1.33 -3.98,3.31 -3.05,0.52 -1.44,1.46 -5.17,0.39 0,0 1.13,-4.09 -0.9,-0.88 2.66,-2.22 -2.82,-2.29 0,-2.13 -4.28,-1.39 -3.38,1.6 -2.22,-0.65 0,0 -1.77,-0.99 7.86,-5.72 4.34,-7.87 5.76,-0.29 4.38,-2.46 0.78,2.06 2.32,0.02 5.21,-2.2 12.29,-10.98 7.51,-4.28 1.13,-1.64 5.02,-0.72 1.97,-2.18 1.34,0.8 3.89,-2.8 4.12,-6.83 7.29,-3.34 2.68,-3.97 4.88,-3.91 3.34,-5.47 4.96,0.06 -0.07,-1.09 -0.97,0.02 1.83,-2.47 6.33,-1.97 11.64,-9.6 10.51,-14.5 3.07,-8.86 3.43,-5.92 1.11,-8.23 5.11,-13.13 -0.27,-5.66 10.17,-1.6 6.16,-5.94 4.23,-8.42 3.12,-3.09 1.64,-11.33 -0.32,-13.77 4.5,-6.45 z"
         style="fill:#00ab00;fill-opacity:1;stroke:#00ac00;stroke-width:0.5;stroke-opacity:1"
         inkscape:connector-curvature="0" />
    </g>
  </g>
  <g
     inkscape:groupmode="layer"
     id="layer2"
     inkscape:label="Places"
     transform="translate(0,570)"
     style="display:inline">
    <circle
       style="opacity:1;fill:#a11415;fill-opacity:1;stroke:none;stroke-width:1.47363865;stroke-linecap:round;stroke-linejoin:round;stroke-miterlimit:4;stroke-dasharray:none;stroke-opacity:1"
       id="path4180"
       cx="334.89844"
       cy="-444.14807"
       r="13.238541" />
    <circle
       r="13.238541"
       cy="-480.08237"
       cx="311.54114"
       id="circle4182"
       style="opacity:1;fill:#a11415;fill-opacity:1;stroke:none;stroke-width:1.47363865;stroke-linecap:round;stroke-linejoin:round;stroke-miterlimit:4;stroke-dasharray:none;stroke-opacity:1" />
    <circle
       style="opacity:1;fill:#a11415;fill-opacity:1;stroke:none;stroke-width:1.47363865;stroke-linecap:round;stroke-linejoin:round;stroke-miterlimit:4;stroke-dasharray:none;stroke-opacity:1"
       id="circle4184"
       cx="367.23929"
       cy="-449.53821"
       r="13.238541" />
    <circle
       r="13.238541"
       cy="-383.05975"
       cx="369.03601"
       id="circle4186"
       style="opacity:1;fill:#a11415;fill-opacity:1;stroke:none;stroke-width:1.47363865;stroke-linecap:round;stroke-linejoin:round;stroke-miterlimit:4;stroke-dasharray:none;stroke-opacity:1" />
    <circle
       style="opacity:1;fill:#a11415;fill-opacity:1;stroke:none;stroke-width:1.47363865;stroke-linecap:round;stroke-linejoin:round;stroke-miterlimit:4;stroke-dasharray:none;stroke-opacity:1"
       id="circle4188"
       cx="381.61301"
       cy="-413.60391"
       r="13.238541" />
    <circle
       r="13.238541"
       cy="-415.40063"
       cx="352.86557"
       id="circle4190"
       style="opacity:1;fill:#a11415;fill-opacity:1;stroke:none;stroke-width:1.47363865;stroke-linecap:round;stroke-linejoin:round;stroke-miterlimit:4;stroke-dasharray:none;stroke-opacity:1" />
    <circle
       style="opacity:1;fill:#a11415;fill-opacity:1;stroke:none;stroke-width:1.47363865;stroke-linecap:round;stroke-linejoin:round;stroke-miterlimit:4;stroke-dasharray:none;stroke-opacity:1"
       id="circle4192"
       cx="157.02367"
       cy="14.014183"
       r="13.238541" />
    <circle
       r="13.238541"
       cy="-11.139809"
       cx="81.561653"
       id="circle4194"
       style="opacity:1;fill:#a11415;fill-opacity:1;stroke:none;stroke-width:1.47363865;stroke-linecap:round;stroke-linejoin:round;stroke-miterlimit:4;stroke-dasharray:none;stroke-opacity:1" />
    <circle
       style="opacity:1;fill:#a11415;fill-opacity:1;stroke:none;stroke-width:1.47363865;stroke-linecap:round;stroke-linejoin:round;stroke-miterlimit:4;stroke-dasharray:none;stroke-opacity:1"
       id="circle4196"
       cx="112.1058"
       cy="-88.398537"
       r="13.238541" />
    <circle
       r="13.238541"
       cy="-133.31638"
       cx="169.60068"
       id="circle4198"
       style="opacity:1;fill:#a11415;fill-opacity:1;stroke:none;stroke-width:1.47363865;stroke-linecap:round;stroke-linejoin:round;stroke-miterlimit:4;stroke-dasharray:none;stroke-opacity:1" />
    <circle
       style="opacity:1;fill:#a11415;fill-opacity:1;stroke:none;stroke-width:1.47363865;stroke-linecap:round;stroke-linejoin:round;stroke-miterlimit:4;stroke-dasharray:none;stroke-opacity:1"
       id="circle4200"
       cx="245.06268"
       cy="-221.35538"
       r="13.238541" />
    <circle
       r="13.238541"
       cy="-233.9324"
       cx="334.89841"
       id="circle4202"
       style="opacity:1;fill:#a11415;fill-opacity:1;stroke:none;stroke-width:1.47363865;stroke-linecap:round;stroke-linejoin:round;stroke-miterlimit:4;stroke-dasharray:none;stroke-opacity:1" />
  </g>
</svg>
